<svg width="24" height="21" viewBox="0 0 24 21" fill="none" xmlns="http://www.w3.org/2000/svg">
<path d="M12.05 0.989999V0.4H12.25V0.999999C15.25 1.14 20.94 1.78 22.37 3.08C23.6 4.21 22.98 5.53 21.39 5.53C20.79 5.53 20.05 5.34 19.23 4.89C17.55 3.15 15.28 1.83 12.25 1.4V8.7C17.8 9.31 23.59 10.21 23.59 14.01C23.59 17.79 19.73 20.24 13.78 20.24C13.4 20.24 12.87 20.23 12.25 20.19V20.74H12.05V20.18C8.82 19.98 3.3 19.32 1.95 18.1C0.72 16.97 1.34 15.65 2.93 15.65C3.53 15.65 4.27 15.84 5.09 16.29C6.64 17.9 9.14 19.12 12.05 19.64V12.08C6.78 11.52 1.58 10.67 1.58 7.17C1.58 3.43 5.36 0.969999 11.1 0.969999C11.36 0.969999 11.68 0.969999 12.05 0.989999ZM12.05 8.68V1.38C11.4 1.3 10.72 1.25 10.01 1.25C5.99 1.25 2.28 3.43 2.28 5.78C2.28 7.82 7.03 8.14 12.05 8.68ZM15.11 19.91C19.16 19.91 22.89 17.76 22.89 15.4C22.89 12.94 17.57 12.66 12.25 12.1V19.68C13.17 19.83 14.13 19.91 15.11 19.91Z" fill="#212020"/>
</svg>
